<svg width="56" height="56" viewBox="0 0 56 56" fill="none" xmlns="http://www.w3.org/2000/svg">
    <path fill-rule="evenodd" clip-rule="evenodd" d="M4.66675 28C4.66675 15.1133 15.1134 4.66663 28.0001 4.66663C40.8867 4.66663 51.3334 15.1133 51.3334 28C51.3334 40.8866 40.8867 51.3333 28.0001 51.3333C15.1134 51.3333 4.66675 40.8866 4.66675 28ZM26.2501 11.6666C26.2501 10.7001 27.0336 9.91663 28.0001 9.91663C37.9872 9.91663 46.0834 18.0128 46.0834 28C46.0834 37.9871 37.9872 46.0833 28.0001 46.0833C18.0129 46.0833 9.91675 37.9871 9.91675 28C9.91675 27.0335 10.7002 26.25 11.6667 26.25C12.6332 26.25 13.4167 27.0335 13.4167 28C13.4167 36.0541 19.9459 42.5833 28.0001 42.5833C36.0542 42.5833 42.5834 36.0541 42.5834 28C42.5834 19.9458 36.0542 13.4166 28.0001 13.4166C27.0336 13.4166 26.2501 12.6331 26.2501 11.6666ZM28.0001 16.9166C27.0336 16.9166 26.2501 17.7001 26.2501 18.6666C26.2501 19.6331 27.0336 20.4166 28.0001 20.4166C32.1882 20.4166 35.5834 23.8118 35.5834 28C35.5834 32.1881 32.1882 35.5833 28.0001 35.5833C27.0336 35.5833 26.2501 36.3668 26.2501 37.3333C26.2501 38.2998 27.0336 39.0833 28.0001 39.0833C34.1212 39.0833 39.0834 34.1211 39.0834 28C39.0834 21.8788 34.1212 16.9166 28.0001 16.9166Z" fill="white"/>
    </svg>
    