<svg width="165" height="56" viewBox="0 0 165 56" fill="none" xmlns="http://www.w3.org/2000/svg">
    <path d="M2.3418 23.622C3.19046 23.242 3.96946 22.824 4.6788 22.368C5.4008 21.9247 5.9708 21.5067 6.3888 21.114C6.81946 20.7213 7.0348 20.411 7.0348 20.183C7.0348 19.6763 6.64213 18.169 5.8568 15.661L8.4218 14.635C8.73846 15.509 8.98546 16.44 9.1628 17.428C9.34013 18.4033 9.4288 19.3217 9.4288 20.183C9.4288 21.5003 8.9348 22.7037 7.9468 23.793C6.9588 24.8823 5.5908 25.8197 3.8428 26.605L2.3418 23.622ZM4.7548 10.987L6.7878 8.954L8.8018 10.987L6.7878 13.001L4.7548 10.987ZM13.686 6.37C13.8507 7.56067 13.971 9.011 14.047 10.721C14.1357 12.431 14.18 14.0397 14.18 15.547C14.18 16.0537 14.218 16.44 14.294 16.706C14.3827 16.972 14.5283 17.162 14.731 17.276C14.9337 17.3773 15.225 17.428 15.605 17.428H15.7L15.89 19.214L15.7 21H15.605C12.831 21 11.425 19.2963 11.387 15.889C11.3237 12.3803 11.121 9.429 10.779 7.035L13.686 6.37ZM26.1534 17.428C26.4447 17.428 26.6917 17.3393 26.8944 17.162C27.0971 16.9847 27.1984 16.782 27.1984 16.554C27.1984 16.1233 26.8501 15.0593 26.1534 13.362L28.4904 12.07C28.7311 12.564 28.9844 13.286 29.2504 14.236C29.5291 15.186 29.6684 16.0157 29.6684 16.725C29.6684 17.4977 29.5164 18.2133 29.2124 18.872C28.9211 19.518 28.5094 20.0373 27.9774 20.43C27.4454 20.81 26.8374 21 26.1534 21H26.0964V17.428H26.1534ZM21.0044 21V17.428H21.1184C21.7137 17.428 22.1444 17.143 22.4104 16.573C22.6511 16.0663 22.8601 15.3823 23.0374 14.521L25.3744 14.616C25.3364 14.8313 25.2921 15.1227 25.2414 15.49C25.2034 15.8447 25.1844 16.1233 25.1844 16.326C25.1844 16.6553 25.2604 16.9213 25.4124 17.124C25.5771 17.3267 25.8177 17.428 26.1344 17.428H26.1914L26.3814 19.214L26.1914 21H26.1344C25.4884 21 24.9184 20.8417 24.4244 20.525C23.9431 20.1957 23.5694 19.7333 23.3034 19.138L23.9114 19.1C23.4681 19.7587 23.0247 20.24 22.5814 20.544C22.1507 20.848 21.6441 21 21.0614 21H21.0044ZM15.5704 21L15.3804 19.214L15.5704 17.428H15.6654C16.0074 17.428 16.3557 17.3583 16.7104 17.219C17.0651 17.0797 17.3247 16.915 17.4894 16.725C17.9201 16.269 18.2557 15.5597 18.4964 14.597L20.8334 14.844C20.8081 14.9327 20.7384 15.1987 20.6244 15.642C20.5104 16.0853 20.4534 16.44 20.4534 16.706C20.4534 17.1873 20.6561 17.428 21.0614 17.428H21.1184L21.3084 19.214L21.1184 21H20.9854C20.4787 21 20.0101 20.8797 19.5794 20.639C19.1614 20.3857 18.8447 20.05 18.6294 19.632C18.2114 20.0753 17.7427 20.4173 17.2234 20.658C16.7167 20.886 16.1847 21 15.6274 21H15.5704ZM31.9925 17.01C32.4232 17.2 32.8792 17.371 33.3605 17.523C33.8418 17.6623 34.3992 17.732 35.0325 17.732C35.7038 17.7193 36.2548 17.656 36.6855 17.542C37.1288 17.428 37.4328 17.3013 37.5975 17.162C37.2555 15.9207 35.9255 14.54 33.6075 13.02L35.2985 9.885C36.8058 10.8983 38.0092 12.0573 38.9085 13.362C39.8078 14.654 40.2575 15.9017 40.2575 17.105C40.2575 17.637 40.1498 18.169 39.9345 18.701C39.6052 19.4863 39.0162 20.088 38.1675 20.506C37.3188 20.9113 36.3942 21.114 35.3935 21.114C33.6328 21.114 32.0938 20.5757 30.7765 19.499L31.9925 17.01ZM38.9316 23.622C39.7803 23.242 40.5593 22.824 41.2686 22.368C41.9906 21.9247 42.5606 21.5067 42.9786 21.114C43.4093 20.7213 43.6246 20.411 43.6246 20.183C43.6246 19.6763 43.232 18.169 42.4466 15.661L45.0116 14.635C45.3283 15.509 45.5753 16.44 45.7526 17.428C45.93 18.4033 46.0186 19.3217 46.0186 20.183C46.0186 21.5003 45.5246 22.7037 44.5366 23.793C43.5486 24.8823 42.1806 25.8197 40.4326 26.605L38.9316 23.622ZM47.4638 23.527C48.9838 23.1977 50.1998 22.8557 51.1118 22.501C52.0238 22.1463 52.6952 21.7347 53.1258 21.266C53.5565 20.7973 53.7718 20.2337 53.7718 19.575C53.7718 18.8023 53.6578 18.0677 53.4298 17.371C53.2145 16.6743 52.9295 16.117 52.5748 15.699C52.2202 15.281 51.8528 15.072 51.4728 15.072C51.1182 15.072 50.8142 15.2303 50.5608 15.547C50.3202 15.8637 50.1998 16.1803 50.1998 16.497C50.1998 16.6363 50.2378 16.7567 50.3138 16.858C50.5165 17.0987 50.9725 17.257 51.6818 17.333C52.4038 17.3963 53.4298 17.428 54.7598 17.428H56.8308L57.0208 19.214L56.8308 21L54.3418 21.019C53.2272 21.019 52.2835 20.9747 51.5108 20.886C50.7382 20.7847 50.0605 20.582 49.4778 20.278C48.9078 19.9613 48.4898 19.499 48.2238 18.891C47.9958 18.397 47.8818 17.808 47.8818 17.124C47.8818 16.3133 48.0528 15.509 48.3948 14.711C48.7368 13.913 49.2055 13.2607 49.8008 12.754C50.3962 12.2473 51.0612 11.994 51.7958 11.994C52.5812 11.994 53.3032 12.3233 53.9618 12.982C54.6205 13.6407 55.1398 14.521 55.5198 15.623C55.8998 16.725 56.0898 17.922 56.0898 19.214C56.0898 20.4807 55.7858 21.6207 55.1778 22.634C54.5825 23.6473 53.7212 24.4897 52.5938 25.161C51.4665 25.845 50.1302 26.3263 48.5848 26.605L47.4638 23.527ZM56.5749 17.428H56.6699C57.6706 17.4153 58.3673 17.3077 58.7599 17.105C59.1526 16.9023 59.3616 16.5603 59.3869 16.079C59.3743 15.509 59.3046 14.8883 59.1779 14.217L61.5339 13.78C61.7113 14.8187 61.7999 15.8763 61.7999 16.953C61.8759 17.0797 62.0153 17.1937 62.2179 17.295C62.4206 17.3837 62.6866 17.428 63.0159 17.428H63.0919L63.2819 19.214L63.0919 21H63.0159C62.4459 21 61.9076 20.8607 61.4009 20.582C60.9069 20.2907 60.4826 19.917 60.1279 19.461L60.7359 19.537C59.9126 20.5123 58.5573 21 56.6699 21H56.5749V17.428ZM57.1069 24.306L59.1399 22.273L61.1539 24.306L59.1399 26.32L57.1069 24.306ZM73.5606 17.428C73.852 17.428 74.099 17.3393 74.3016 17.162C74.5043 16.9847 74.6056 16.782 74.6056 16.554C74.6056 16.1233 74.2573 15.0593 73.5606 13.362L75.8976 12.07C76.1383 12.564 76.3916 13.286 76.6576 14.236C76.9363 15.186 77.0756 16.0157 77.0756 16.725C77.0756 17.4977 76.9236 18.2133 76.6196 18.872C76.3283 19.518 75.9166 20.0373 75.3846 20.43C74.8526 20.81 74.2446 21 73.5606 21H73.5036V17.428H73.5606ZM68.4116 21V17.428H68.5256C69.121 17.428 69.5516 17.143 69.8176 16.573C70.0583 16.0663 70.2673 15.3823 70.4446 14.521L72.7816 14.616C72.7436 14.8313 72.6993 15.1227 72.6486 15.49C72.6106 15.8447 72.5916 16.1233 72.5916 16.326C72.5916 16.6553 72.6676 16.9213 72.8196 17.124C72.9843 17.3267 73.225 17.428 73.5416 17.428H73.5986L73.7886 19.214L73.5986 21H73.5416C72.8956 21 72.3256 20.8417 71.8316 20.525C71.3503 20.1957 70.9766 19.7333 70.7106 19.138L71.3186 19.1C70.8753 19.7587 70.432 20.24 69.9886 20.544C69.558 20.848 69.0513 21 68.4686 21H68.4116ZM62.9776 21L62.7876 19.214L62.9776 17.428H63.0726C63.4146 17.428 63.763 17.3583 64.1176 17.219C64.4723 17.0797 64.732 16.915 64.8966 16.725C65.3273 16.269 65.663 15.5597 65.9036 14.597L68.2406 14.844C68.2153 14.9327 68.1456 15.1987 68.0316 15.642C67.9176 16.0853 67.8606 16.44 67.8606 16.706C67.8606 17.1873 68.0633 17.428 68.4686 17.428H68.5256L68.7156 19.214L68.5256 21H68.3926C67.886 21 67.4173 20.8797 66.9866 20.639C66.5686 20.3857 66.252 20.05 66.0366 19.632C65.6186 20.0753 65.15 20.4173 64.6306 20.658C64.124 20.886 63.592 21 63.0346 21H62.9776ZM71.4516 6.37L72.9336 7.833L71.4516 9.296L70.4826 8.327L69.9886 7.833L71.4516 6.37ZM73.2946 8.536L74.9666 10.208L73.2946 11.899L71.6036 10.208L73.2946 8.536ZM69.6466 8.536L71.3186 10.208L69.6466 11.899L67.9556 10.208L69.6466 8.536ZM78.7917 20.886C78.9437 19.936 79.0197 18.5933 79.0197 16.858C79.0197 15.1227 78.95 13.286 78.8107 11.348C78.684 9.41 78.5384 7.97233 78.3737 7.035L81.3187 6.37C81.4454 7.244 81.5594 8.574 81.6607 10.36C81.762 12.1333 81.8127 13.8877 81.8127 15.623C81.8127 18.017 81.7114 19.8663 81.5087 21.171L78.7917 20.886ZM84.1683 17.01C84.5989 17.2 85.0549 17.371 85.5363 17.523C86.0176 17.6623 86.5749 17.732 87.2083 17.732C87.8796 17.7193 88.4306 17.656 88.8613 17.542C89.3046 17.428 89.6086 17.3013 89.7733 17.162C89.4313 15.9207 88.1013 14.54 85.7833 13.02L87.4743 9.885C88.9816 10.8983 90.1849 12.0573 91.0843 13.362C91.9836 14.654 92.4333 15.9017 92.4333 17.105C92.4333 17.637 92.3256 18.169 92.1103 18.701C91.7809 19.4863 91.1919 20.088 90.3433 20.506C89.4946 20.9113 88.5699 21.114 87.5693 21.114C85.8086 21.114 84.2696 20.5757 82.9523 19.499L84.1683 17.01ZM6.60091 34.189L9.20391 40.345C9.38125 40.7757 9.57758 41.067 9.79291 41.219C10.0209 41.3583 10.3692 41.428 10.8379 41.428H11.0849L11.2749 43.214L11.0849 45H10.8379C9.93858 45 9.19758 44.7403 8.61491 44.221C8.03225 43.689 7.49391 42.8593 6.99991 41.732L4.24491 35.462L6.60091 34.189ZM1.43291 41.01C1.82558 41.2 2.25625 41.371 2.72491 41.523C3.20625 41.6623 3.78891 41.732 4.47291 41.732C5.06825 41.732 5.57491 41.6687 5.99291 41.542C6.41091 41.4027 6.73391 41.2507 6.96191 41.086C7.18991 40.9213 7.33558 40.7757 7.39891 40.649L8.99491 42.701C8.74158 43.2077 8.28558 43.7397 7.62691 44.297C6.98091 44.8417 6.04991 45.114 4.83391 45.114C3.26325 45.114 1.72425 44.5757 0.216914 43.499L1.43291 41.01ZM10.8747 41.428H10.9697C11.9704 41.4153 12.6671 41.3077 13.0597 41.105C13.4524 40.9023 13.6614 40.5603 13.6867 40.079C13.6741 39.509 13.6044 38.8883 13.4777 38.217L15.8337 37.78C16.0111 38.8187 16.0997 39.8763 16.0997 40.953C16.1757 41.0797 16.3151 41.1937 16.5177 41.295C16.7204 41.3837 16.9864 41.428 17.3157 41.428H17.3917L17.5817 43.214L17.3917 45H17.3157C16.7457 45 16.2074 44.8607 15.7007 44.582C15.2067 44.2907 14.7824 43.917 14.4277 43.461L15.0357 43.537C14.2124 44.5123 12.8571 45 10.9697 45H10.8747V41.428ZM11.3687 34.55L13.4017 32.517L15.4157 34.55L13.4017 36.564L11.3687 34.55ZM17.2204 41.428H21.1914L21.3814 43.214L21.1914 45H17.2204V41.428ZM20.987 41.428H24.958L25.148 43.214L24.958 45H20.987V41.428ZM24.7536 41.428H28.7246L28.9146 43.214L28.7246 45H24.7536V41.428ZM28.5202 41.428H28.9382C29.8376 41.428 30.6292 40.8263 31.3132 39.623C31.9592 38.4577 32.5862 37.59 33.1942 37.02C33.8149 36.4373 34.4736 36.146 35.1702 36.146C35.9809 36.146 36.6459 36.3867 37.1652 36.868C37.6846 37.3493 38.1469 38.0967 38.5522 39.11C38.9069 40.0347 39.1729 40.6553 39.3502 40.972C39.5276 41.276 39.7112 41.428 39.9012 41.428H40.1672L40.3572 43.214L40.1672 45H39.9012C39.5846 45 39.2426 44.9177 38.8752 44.753C38.5206 44.5883 38.1976 44.354 37.9062 44.05C37.6782 44.3667 37.4186 44.6137 37.1272 44.791C36.7726 45.0063 36.3799 45.114 35.9492 45.114C34.9612 45.114 33.6692 44.62 32.0732 43.632C31.2879 44.544 30.2239 45 28.8812 45H28.5202V41.428ZM33.5552 40.801C34.1379 41.257 34.7269 41.58 35.3222 41.77C35.9176 41.96 36.4052 42.055 36.7852 42.055C36.8992 42.055 36.9689 42.0487 36.9942 42.036C36.9562 41.9347 36.8422 41.618 36.6522 41.086C36.4622 40.554 36.2279 40.1297 35.9492 39.813C35.6832 39.4963 35.3919 39.338 35.0752 39.338C34.5812 39.338 34.0746 39.8257 33.5552 40.801ZM39.9685 41.428H43.9395L44.1295 43.214L43.9395 45H39.9685V41.428ZM43.7351 41.428H47.7061L47.8961 43.214L47.7061 45H43.7351V41.428ZM47.5017 41.428H51.4727L51.6627 43.214L51.4727 45H47.5017V41.428ZM51.2683 41.428H55.2393L55.4293 43.214L55.2393 45H51.2683V41.428ZM65.6749 41.428C65.9662 41.428 66.2132 41.3393 66.4159 41.162C66.6185 40.9847 66.7199 40.782 66.7199 40.554C66.7199 40.1233 66.3715 39.0593 65.6749 37.362L68.0119 36.07C68.2526 36.564 68.5059 37.286 68.7719 38.236C69.0505 39.186 69.1899 40.0157 69.1899 40.725C69.1899 41.4977 69.0379 42.2133 68.7339 42.872C68.4425 43.518 68.0309 44.0373 67.4989 44.43C66.9669 44.81 66.3589 45 65.6749 45H65.6179V41.428H65.6749ZM60.5259 45V41.428H60.6399C61.2352 41.428 61.6659 41.143 61.9319 40.573C62.1725 40.0663 62.3815 39.3823 62.5589 38.521L64.8959 38.616C64.8579 38.8313 64.8136 39.1227 64.7629 39.49C64.7249 39.8447 64.7059 40.1233 64.7059 40.326C64.7059 40.6553 64.7819 40.9213 64.9339 41.124C65.0986 41.3267 65.3392 41.428 65.6559 41.428H65.7129L65.9029 43.214L65.7129 45H65.6559C65.0099 45 64.4399 44.8417 63.9459 44.525C63.4645 44.1957 63.0909 43.7333 62.8249 43.138L63.4329 43.1C62.9895 43.7587 62.5462 44.24 62.1029 44.544C61.6722 44.848 61.1655 45 60.5829 45H60.5259ZM55.0919 45L54.9019 43.214L55.0919 41.428H55.1869C55.5289 41.428 55.8772 41.3583 56.2319 41.219C56.5865 41.0797 56.8462 40.915 57.0109 40.725C57.4415 40.269 57.7772 39.5597 58.0179 38.597L60.3549 38.844C60.3295 38.9327 60.2599 39.1987 60.1459 39.642C60.0319 40.0853 59.9749 40.44 59.9749 40.706C59.9749 41.1873 60.1775 41.428 60.5829 41.428H60.6399L60.8299 43.214L60.6399 45H60.5069C60.0002 45 59.5315 44.8797 59.1009 44.639C58.6829 44.3857 58.3662 44.05 58.1509 43.632C57.7329 44.0753 57.2642 44.4173 56.7449 44.658C56.2382 44.886 55.7062 45 55.1489 45H55.0919ZM63.5659 30.37L65.0479 31.833L63.5659 33.296L62.5969 32.327L62.1029 31.833L63.5659 30.37ZM65.4089 32.536L67.0809 34.208L65.4089 35.899L63.7179 34.208L65.4089 32.536ZM61.7609 32.536L63.4329 34.208L61.7609 35.899L60.0699 34.208L61.7609 32.536ZM70.583 47.527C72.103 47.1977 73.319 46.8557 74.231 46.501C75.143 46.1463 75.8143 45.7347 76.245 45.266C76.6756 44.7973 76.891 44.2337 76.891 43.575C76.891 42.8023 76.777 42.0677 76.549 41.371C76.3336 40.6743 76.0486 40.117 75.694 39.699C75.3393 39.281 74.972 39.072 74.592 39.072C74.2373 39.072 73.9333 39.2303 73.68 39.547C73.4393 39.8637 73.319 40.1803 73.319 40.497C73.319 40.6363 73.357 40.7567 73.433 40.858C73.6356 41.0987 74.0916 41.257 74.801 41.333C75.523 41.3963 76.549 41.428 77.879 41.428H79.95L80.14 43.214L79.95 45L77.461 45.019C76.3463 45.019 75.4026 44.9747 74.63 44.886C73.8573 44.7847 73.1796 44.582 72.597 44.278C72.027 43.9613 71.609 43.499 71.343 42.891C71.115 42.397 71.001 41.808 71.001 41.124C71.001 40.3133 71.172 39.509 71.514 38.711C71.856 37.913 72.3246 37.2607 72.92 36.754C73.5153 36.2473 74.1803 35.994 74.915 35.994C75.7003 35.994 76.4223 36.3233 77.081 36.982C77.7396 37.6407 78.259 38.521 78.639 39.623C79.019 40.725 79.209 41.922 79.209 43.214C79.209 44.4807 78.905 45.6207 78.297 46.634C77.7016 47.6473 76.8403 48.4897 75.713 49.161C74.5856 49.845 73.2493 50.3263 71.704 50.605L70.583 47.527ZM79.7131 41.428H80.0171C82.0691 41.428 83.5764 41.314 84.5391 41.086C85.5017 40.8453 86.0274 40.4653 86.1161 39.946C86.1667 39.6167 86.0527 39.3 85.7741 38.996C85.4954 38.692 85.1597 38.4957 84.7671 38.407C84.7164 38.3943 84.6341 38.388 84.5201 38.388C84.1654 38.388 83.8424 38.502 83.5511 38.73C83.2724 38.958 83.1204 39.2557 83.0951 39.623C83.0697 40.0157 83.3484 40.383 83.9311 40.725C84.5264 41.0543 85.2547 41.3203 86.1161 41.523C86.9774 41.7257 87.7564 41.827 88.4531 41.827C89.2891 41.827 89.7641 41.6813 89.8781 41.39C89.9161 41.2887 89.9351 41.2 89.9351 41.124C89.9351 40.706 89.5361 40.288 88.7381 39.87C87.9527 39.452 86.9457 39.053 85.7171 38.673C84.5011 38.293 82.8354 37.818 80.7201 37.248L82.0501 33.942C84.6974 34.6893 86.7747 35.4177 88.2821 36.127C89.8021 36.8237 90.8724 37.533 91.4931 38.255C92.1264 38.977 92.4431 39.7877 92.4431 40.687C92.4431 41.2697 92.3101 41.979 92.0441 42.815C91.8161 43.5117 91.3411 44.031 90.6191 44.373C89.8971 44.715 89.0357 44.886 88.0351 44.886C86.8951 44.886 85.7424 44.6833 84.5771 44.278C83.4244 43.86 82.4681 43.2837 81.7081 42.549C80.9607 41.8143 80.5871 40.991 80.5871 40.079C80.5871 39.7623 80.6314 39.4647 80.7201 39.186C81.1254 37.8053 81.6954 36.7413 82.4301 35.994C83.1774 35.234 84.0324 34.9047 84.9951 35.006C85.5904 35.0567 86.1287 35.3037 86.6101 35.747C87.1041 36.1903 87.4904 36.754 87.7691 37.438C88.0477 38.1093 88.1871 38.806 88.1871 39.528C88.1871 39.794 88.1681 40.06 88.1301 40.326C87.9401 41.5293 87.5411 42.473 86.9331 43.157C86.3251 43.8283 85.4701 44.3033 84.3681 44.582C83.2661 44.8607 81.8157 45 80.0171 45H79.7131V41.428Z" fill="white"/>
    <path fill-rule="evenodd" clip-rule="evenodd" d="M113.667 28C113.667 15.1133 124.113 4.66663 137 4.66663C149.887 4.66663 160.333 15.1133 160.333 28C160.333 40.8866 149.887 51.3333 137 51.3333C124.113 51.3333 113.667 40.8866 113.667 28ZM135.25 11.6666C135.25 10.7001 136.034 9.91663 137 9.91663C146.987 9.91663 155.083 18.0128 155.083 28C155.083 37.9871 146.987 46.0833 137 46.0833C127.013 46.0833 118.917 37.9871 118.917 28C118.917 27.0335 119.7 26.25 120.667 26.25C121.633 26.25 122.417 27.0335 122.417 28C122.417 36.0541 128.946 42.5833 137 42.5833C145.054 42.5833 151.583 36.0541 151.583 28C151.583 19.9458 145.054 13.4166 137 13.4166C136.034 13.4166 135.25 12.6331 135.25 11.6666ZM137 16.9166C136.034 16.9166 135.25 17.7001 135.25 18.6666C135.25 19.6331 136.034 20.4166 137 20.4166C141.188 20.4166 144.583 23.8118 144.583 28C144.583 32.1881 141.188 35.5833 137 35.5833C136.034 35.5833 135.25 36.3668 135.25 37.3333C135.25 38.2998 136.034 39.0833 137 39.0833C143.121 39.0833 148.083 34.1211 148.083 28C148.083 21.8788 143.121 16.9166 137 16.9166Z" fill="white"/>
    </svg>
    